<svg xmlns="http://www.w3.org/2000/svg" width="33.489" height="300" viewBox="391.511 831.5 33.489 300"><g data-name="CompositeLayer"><path d="M408.256 1031.74v-8.372h8.372v8.372h-8.372z" fill="#69c29e" fill-rule="evenodd" data-name="Rectángulo 52"/><path d="M416.628 839.89v-8.373H425v8.372h-8.372z" fill="#69c29e" fill-rule="evenodd" data-name="Rectángulo 146"/><path d="M408.273 839.872V831.5h8.371v8.372h-8.371z" fill="#fffbf4" fill-rule="evenodd" data-name="Rectángulo 145"/><path d="M416.628 848.227v-8.372H425v8.372h-8.372z" fill="#fffbf4" fill-rule="evenodd" data-name="Rectángulo 144"/><path d="M416.628 856.6v-8.373H425v8.372h-8.372z" fill="#69c29e" fill-rule="evenodd" data-name="Rectángulo 143"/><path d="M416.628 864.972V856.6H425v8.372h-8.372z" fill="#fffbf4" fill-rule="evenodd" data-name="Rectángulo 142"/><path d="M416.628 873.345v-8.373H425v8.373h-8.372z" fill="#69c29e" fill-rule="evenodd" data-name="Rectángulo 141"/><path d="M416.628 890.089v-8.372H425v8.372h-8.372z" fill="#69c29e" fill-rule="evenodd" data-name="Rectángulo 139"/><path d="M416.628 898.461v-8.371H425v8.371h-8.372z" fill="#fffbf4" fill-rule="evenodd" data-name="Rectángulo 138"/><path d="M416.628 881.717v-8.372H425v8.372h-8.372z" fill="#fffbf4" fill-rule="evenodd" data-name="Rectángulo 140"/><path d="M416.628 906.833v-8.372H425v8.372h-8.372z" fill="#69c29e" fill-rule="evenodd" data-name="Rectángulo 137"/><path d="M416.628 914.498v-8.372H425v8.372h-8.372z" fill="#fffbf4" fill-rule="evenodd" data-name="Rectángulo 136"/><path d="M416.628 931.243v-8.372H425v8.372h-8.372z" fill="#fffbf4" fill-rule="evenodd" data-name="Rectángulo 134"/><path d="M416.628 922.87v-8.372H425v8.373h-8.372z" fill="#69c29e" fill-rule="evenodd" data-name="Rectángulo 135"/><path d="M416.628 939.615v-8.372H425v8.372h-8.372z" fill="#69c29e" fill-rule="evenodd" data-name="Rectángulo 133"/><path d="M416.628 947.988v-8.372H425v8.372h-8.372z" fill="#fffbf4" fill-rule="evenodd" data-name="Rectángulo 132"/><path d="M416.628 956.36v-8.372H425v8.371h-8.372z" fill="#69c29e" fill-rule="evenodd" data-name="Rectángulo 131"/><path d="M416.628 964.731v-8.372H425v8.372h-8.372z" fill="#fffbf4" fill-rule="evenodd" data-name="Rectángulo 130"/><path d="M416.628 973.104v-8.373H425v8.373h-8.372z" fill="#69c29e" fill-rule="evenodd" data-name="Rectángulo 129"/><path d="M408.256 848.284v-8.372h8.372v8.372h-8.372z" fill="#69c29e" fill-rule="evenodd" data-name="Rectángulo 128"/><path d="M408.256 856.623v-8.372h8.372v8.372h-8.372z" fill="#fffbf4" fill-rule="evenodd" data-name="Rectángulo 127"/><path d="M408.256 864.995v-8.372h8.372v8.372h-8.372z" fill="#69c29e" fill-rule="evenodd" data-name="Rectángulo 126"/><path d="M408.256 873.368v-8.372h8.372v8.372h-8.372z" fill="#fffbf4" fill-rule="evenodd" data-name="Rectángulo 125"/><path d="M408.256 881.74v-8.372h8.372v8.373h-8.372z" fill="#69c29e" fill-rule="evenodd" data-name="Rectángulo 124"/><path d="M408.256 890.113v-8.372h8.372v8.372h-8.372z" fill="#fffbf4" fill-rule="evenodd" data-name="Rectángulo 123"/><path d="M408.256 898.485v-8.372h8.372v8.372h-8.372z" fill="#69c29e" fill-rule="evenodd" data-name="Rectángulo 122"/><path d="M408.256 906.857v-8.372h8.372v8.372h-8.372z" fill="#fffbf4" fill-rule="evenodd" data-name="Rectángulo 121"/><path d="M408.256 915.23v-8.373h8.372v8.372h-8.372z" fill="#69c29e" fill-rule="evenodd" data-name="Rectángulo 120"/><path d="M408.256 922.894v-8.372h8.372v8.372h-8.372z" fill="#fffbf4" fill-rule="evenodd" data-name="Rectángulo 119"/><path d="M408.256 939.639v-8.372h8.372v8.372h-8.372z" fill="#fffbf4" fill-rule="evenodd" data-name="Rectángulo 117"/><path d="M408.256 931.266v-8.372h8.372v8.372h-8.372z" fill="#69c29e" fill-rule="evenodd" data-name="Rectángulo 118"/><path d="M408.256 948.01v-8.371h8.372v8.372h-8.372z" fill="#69c29e" fill-rule="evenodd" data-name="Rectángulo 116"/><path d="M408.256 956.383v-8.372h8.372v8.372h-8.372z" fill="#fffbf4" fill-rule="evenodd" data-name="Rectángulo 115"/><path d="M408.256 964.755v-8.372h8.372v8.372h-8.372z" fill="#69c29e" fill-rule="evenodd" data-name="Rectángulo 114"/><path d="M416.628 981.5v-8.372H425v8.371h-8.372z" fill="#fffbf4" fill-rule="evenodd" data-name="Rectángulo 113"/><path d="M408.256 973.127v-8.372h8.372v8.372h-8.372z" fill="#fffbf4" fill-rule="evenodd" data-name="Rectángulo 112"/><path d="M408.256 981.5v-8.373h8.372v8.372h-8.372z" fill="#69c29e" fill-rule="evenodd" data-name="Rectángulo 111"/><path d="M399.884 839.89v-8.373h8.372v8.372h-8.372z" fill="#69c29e" fill-rule="evenodd" data-name="Rectángulo 110"/><path d="M391.529 839.872V831.5h8.372v8.372h-8.372z" fill="#fffbf4" fill-rule="evenodd" data-name="Rectángulo 109"/><path d="M399.884 848.227v-8.372h8.372v8.372h-8.372z" fill="#fffbf4" fill-rule="evenodd" data-name="Rectángulo 108"/><path d="M399.884 856.6v-8.373h8.372v8.372h-8.372z" fill="#69c29e" fill-rule="evenodd" data-name="Rectángulo 107"/><path d="M399.884 873.345v-8.373h8.372v8.373h-8.372z" fill="#69c29e" fill-rule="evenodd" data-name="Rectángulo 105"/><path d="M399.884 881.717v-8.372h8.372v8.372h-8.372z" fill="#fffbf4" fill-rule="evenodd" data-name="Rectángulo 104"/><path d="M399.884 864.972V856.6h8.372v8.372h-8.372z" fill="#fffbf4" fill-rule="evenodd" data-name="Rectángulo 106"/><path d="M399.884 890.089v-8.372h8.372v8.372h-8.372z" fill="#69c29e" fill-rule="evenodd" data-name="Rectángulo 103"/><path d="M399.884 898.461v-8.372h8.372v8.372h-8.372z" fill="#fffbf4" fill-rule="evenodd" data-name="Rectángulo 102"/><path d="M399.884 906.833v-8.372h8.372v8.372h-8.372z" fill="#69c29e" fill-rule="evenodd" data-name="Rectángulo 101"/><path d="M399.884 914.498v-8.372h8.372v8.372h-8.372z" fill="#fffbf4" fill-rule="evenodd" data-name="Rectángulo 100"/><path d="M399.884 922.87v-8.372h8.372v8.373h-8.372z" fill="#69c29e" fill-rule="evenodd" data-name="Rectángulo 99"/><path d="M399.884 931.243v-8.372h8.372v8.372h-8.372z" fill="#fffbf4" fill-rule="evenodd" data-name="Rectángulo 98"/><path d="M399.884 939.615v-8.372h8.372v8.372h-8.372z" fill="#69c29e" fill-rule="evenodd" data-name="Rectángulo 97"/><path d="M399.884 947.987v-8.372h8.372v8.372h-8.372z" fill="#fffbf4" fill-rule="evenodd" data-name="Rectángulo 96"/><path d="M399.884 956.36v-8.373h8.372v8.372h-8.372z" fill="#69c29e" fill-rule="evenodd" data-name="Rectángulo 95"/><path d="M399.884 964.731v-8.372h8.372v8.372h-8.372z" fill="#fffbf4" fill-rule="evenodd" data-name="Rectángulo 94"/><path d="M391.511 848.284v-8.372h8.371v8.372h-8.37z" fill="#69c29e" fill-rule="evenodd" data-name="Rectángulo 92"/><path d="M399.884 973.104v-8.373h8.372v8.373h-8.372z" fill="#69c29e" fill-rule="evenodd" data-name="Rectángulo 93"/><path d="M391.511 856.623v-8.371h8.371v8.371h-8.37z" fill="#fffbf4" fill-rule="evenodd" data-name="Rectángulo 91"/><path d="M391.511 864.995v-8.372h8.371v8.372h-8.37z" fill="#69c29e" fill-rule="evenodd" data-name="Rectángulo 90"/><path d="M391.511 873.367v-8.372h8.371v8.372h-8.37z" fill="#fffbf4" fill-rule="evenodd" data-name="Rectángulo 89"/><path d="M391.511 881.74v-8.372h8.371v8.373h-8.37z" fill="#69c29e" fill-rule="evenodd" data-name="Rectángulo 88"/><path d="M391.511 898.485v-8.372h8.371v8.372h-8.37z" fill="#69c29e" fill-rule="evenodd" data-name="Rectángulo 86"/><path d="M391.511 906.857v-8.372h8.371v8.372h-8.37z" fill="#fffbf4" fill-rule="evenodd" data-name="Rectángulo 85"/><path d="M391.511 890.113v-8.372h8.371v8.372h-8.37z" fill="#fffbf4" fill-rule="evenodd" data-name="Rectángulo 87"/><path d="M391.511 915.23v-8.372h8.371v8.371h-8.37z" fill="#69c29e" fill-rule="evenodd" data-name="Rectángulo 84"/><path d="M391.511 922.894v-8.372h8.371v8.372h-8.37z" fill="#fffbf4" fill-rule="evenodd" data-name="Rectángulo 83"/><path d="M391.511 931.267v-8.373h8.371v8.373h-8.37z" fill="#69c29e" fill-rule="evenodd" data-name="Rectángulo 82"/><path d="M391.511 948.01v-8.371h8.371v8.372h-8.37z" fill="#69c29e" fill-rule="evenodd" data-name="Rectángulo 80"/><path d="M391.511 956.383v-8.372h8.371v8.372h-8.37z" fill="#fffbf4" fill-rule="evenodd" data-name="Rectángulo 79"/><path d="M391.511 939.639v-8.372h8.371v8.372h-8.37z" fill="#fffbf4" fill-rule="evenodd" data-name="Rectángulo 81"/><path d="M391.511 964.756v-8.372h8.371v8.372h-8.37z" fill="#69c29e" fill-rule="evenodd" data-name="Rectángulo 78"/><path d="M399.884 981.5v-8.373h8.372v8.372h-8.372z" fill="#fffbf4" fill-rule="evenodd" data-name="Rectángulo 77"/><path d="M391.511 973.128v-8.372h8.371v8.372h-8.37z" fill="#fffbf4" fill-rule="evenodd" data-name="Rectángulo 76"/><path d="M391.511 981.5v-8.372h8.371v8.371h-8.37z" fill="#69c29e" fill-rule="evenodd" data-name="Rectángulo 75"/><path d="M416.628 989.889v-8.371H425v8.37h-8.372z" fill="#69c29e" fill-rule="evenodd" data-name="Rectángulo 74"/><path d="M408.272 989.872v-8.373h8.372v8.373h-8.372z" fill="#fffbf4" fill-rule="evenodd" data-name="Rectángulo 73"/><path d="M416.628 998.228v-8.373H425v8.373h-8.372z" fill="#fffbf4" fill-rule="evenodd" data-name="Rectángulo 72"/><path d="M416.628 1006.6v-8.372H425v8.372h-8.372z" fill="#69c29e" fill-rule="evenodd" data-name="Rectángulo 71"/><path d="M416.628 1014.973v-8.372H425v8.372h-8.372z" fill="#fffbf4" fill-rule="evenodd" data-name="Rectángulo 70"/><path d="M416.628 1023.344v-8.371H425v8.371h-8.372z" fill="#69c29e" fill-rule="evenodd" data-name="Rectángulo 69"/><path d="M416.628 1040.088v-8.372H425v8.372h-8.372z" fill="#69c29e" fill-rule="evenodd" data-name="Rectángulo 67"/><path d="M416.628 1031.716v-8.372H425v8.372h-8.372z" fill="#fffbf4" fill-rule="evenodd" data-name="Rectángulo 68"/><path d="M416.628 1048.46v-8.372H425v8.373h-8.372z" fill="#fffbf4" fill-rule="evenodd" data-name="Rectángulo 66"/><path d="M416.628 1064.499v-8.372H425v8.372h-8.372z" fill="#fffbf4" fill-rule="evenodd" data-name="Rectángulo 64"/><path d="M416.628 1056.834v-8.372H425v8.372h-8.372z" fill="#69c29e" fill-rule="evenodd" data-name="Rectángulo 65"/><path d="M408.256 1023.368v-8.372h8.372v8.372h-8.372z" fill="#fffbf4" fill-rule="evenodd" data-name="Rectángulo 53"/><path d="M408.256 1014.996v-8.372h8.372v8.372h-8.372z" fill="#69c29e" fill-rule="evenodd" data-name="Rectángulo 54"/><path d="M408.256 1006.624v-8.373h8.372v8.373h-8.372z" fill="#fffbf4" fill-rule="evenodd" data-name="Rectángulo 55"/><path d="M408.256 998.285v-8.372h8.372v8.372h-8.372z" fill="#69c29e" fill-rule="evenodd" data-name="Rectángulo 56"/><path d="M416.628 1123.104v-8.372H425v8.372h-8.372z" fill="#69c29e" fill-rule="evenodd" data-name="Rectángulo 57"/><path d="M416.628 1106.36v-8.372H425v8.372h-8.372z" fill="#69c29e" fill-rule="evenodd" data-name="Rectángulo 59"/><path d="M416.628 1097.988v-8.373H425v8.373h-8.372z" fill="#fffbf4" fill-rule="evenodd" data-name="Rectángulo 60"/><path d="M416.628 1114.732v-8.372H425v8.372h-8.372z" fill="#fffbf4" fill-rule="evenodd" data-name="Rectángulo 58"/><path d="M416.628 1089.614v-8.37H425v8.37h-8.372z" fill="#69c29e" fill-rule="evenodd" data-name="Rectángulo 61"/><path d="M416.628 1081.243v-8.372H425v8.372h-8.372z" fill="#fffbf4" fill-rule="evenodd" data-name="Rectángulo 62"/><path d="M416.628 1072.871v-8.372H425v8.372h-8.372z" fill="#69c29e" fill-rule="evenodd" data-name="Rectángulo 63"/><path d="M408.256 1040.112v-8.372h8.372v8.372h-8.372z" fill="#fffbf4" fill-rule="evenodd" data-name="Rectángulo 51"/><path d="M408.256 1048.484v-8.372h8.372v8.372h-8.372z" fill="#69c29e" fill-rule="evenodd" data-name="Rectángulo 50"/><path d="M408.256 1056.857v-8.373h8.372v8.373h-8.372z" fill="#fffbf4" fill-rule="evenodd" data-name="Rectángulo 49"/><path d="M408.256 1072.894v-8.372h8.372v8.372h-8.372z" fill="#fffbf4" fill-rule="evenodd" data-name="Rectángulo 47"/><path d="M408.256 1081.266v-8.372h8.372v8.372h-8.372z" fill="#69c29e" fill-rule="evenodd" data-name="Rectángulo 46"/><path d="M408.256 1065.229v-8.372h8.372v8.372h-8.372z" fill="#69c29e" fill-rule="evenodd" data-name="Rectángulo 48"/><path d="M408.256 1089.64v-8.373h8.372v8.372h-8.372z" fill="#fffbf4" fill-rule="evenodd" data-name="Rectángulo 45"/><path d="M408.256 1106.384v-8.373h8.372v8.373h-8.372z" fill="#fffbf4" fill-rule="evenodd" data-name="Rectángulo 43"/><path d="M408.256 1098.011v-8.372h8.372v8.372h-8.372z" fill="#69c29e" fill-rule="evenodd" data-name="Rectángulo 44"/><path d="M408.256 1114.756v-8.372h8.372v8.372h-8.372z" fill="#69c29e" fill-rule="evenodd" data-name="Rectángulo 42"/><path d="M416.628 1131.5v-8.372H425v8.372h-8.372z" fill="#fffbf4" fill-rule="evenodd" data-name="Rectángulo 41"/><path d="M408.256 1123.128v-8.372h8.372v8.372h-8.372z" fill="#fffbf4" fill-rule="evenodd" data-name="Rectángulo 40"/><path d="M399.884 1064.498v-8.372h8.372v8.372h-8.372z" fill="#fffbf4" fill-rule="evenodd" data-name="Rectángulo 28"/><path d="M399.884 1056.833v-8.372h8.372v8.372h-8.372z" fill="#69c29e" fill-rule="evenodd" data-name="Rectángulo 29"/><path d="M399.884 1048.46v-8.372h8.372v8.373h-8.372z" fill="#fffbf4" fill-rule="evenodd" data-name="Rectángulo 30"/><path d="M399.884 1031.716v-8.372h8.372v8.372h-8.372z" fill="#fffbf4" fill-rule="evenodd" data-name="Rectángulo 32"/><path d="M399.884 1014.972v-8.372h8.372v8.372h-8.372z" fill="#fffbf4" fill-rule="evenodd" data-name="Rectángulo 34"/><path d="M399.884 1023.344v-8.372h8.372v8.372h-8.372z" fill="#69c29e" fill-rule="evenodd" data-name="Rectángulo 33"/><path d="M399.884 1006.6v-8.372h8.372v8.372h-8.372z" fill="#69c29e" fill-rule="evenodd" data-name="Rectángulo 35"/><path d="M399.884 998.228v-8.373h8.372v8.373h-8.372z" fill="#fffbf4" fill-rule="evenodd" data-name="Rectángulo 36"/><path d="M391.529 989.872v-8.373h8.372v8.373h-8.372z" fill="#fffbf4" fill-rule="evenodd" data-name="Rectángulo 37"/><path d="M399.884 989.889v-8.372h8.372v8.372h-8.372z" fill="#69c29e" fill-rule="evenodd" data-name="Rectángulo 38"/><path d="M408.256 1131.5v-8.372h8.372v8.372h-8.372z" fill="#69c29e" fill-rule="evenodd" data-name="Rectángulo 39"/><path d="M399.884 1040.088v-8.372h8.372v8.372h-8.372z" fill="#69c29e" fill-rule="evenodd" data-name="Rectángulo 31"/><path d="M399.884 1072.871v-8.372h8.372v8.372h-8.372z" fill="#69c29e" fill-rule="evenodd" data-name="Rectángulo 27"/><path d="M399.884 1081.243v-8.372h8.372v8.372h-8.372z" fill="#fffbf4" fill-rule="evenodd" data-name="Rectángulo 26"/><path d="M399.884 1089.615v-8.372h8.372v8.372h-8.372z" fill="#69c29e" fill-rule="evenodd" data-name="Rectángulo 25"/><path d="M399.884 1097.988v-8.373h8.372v8.373h-8.372z" fill="#fffbf4" fill-rule="evenodd" data-name="Rectángulo 24"/><path d="M399.884 1106.36v-8.372h8.372v8.372h-8.372z" fill="#69c29e" fill-rule="evenodd" data-name="Rectángulo 23"/><path d="M399.884 1123.104v-8.372h8.372v8.372h-8.372z" fill="#69c29e" fill-rule="evenodd" data-name="Rectángulo 21"/><path d="M391.511 998.285v-8.372h8.371v8.372h-8.37z" fill="#69c29e" fill-rule="evenodd" data-name="Rectángulo 20"/><path d="M399.884 1114.732v-8.372h8.372v8.372h-8.372z" fill="#fffbf4" fill-rule="evenodd" data-name="Rectángulo 22"/><path d="M391.511 1006.624v-8.373h8.371v8.373h-8.37z" fill="#fffbf4" fill-rule="evenodd" data-name="Rectángulo 19"/><path d="M391.511 1014.996v-8.372h8.371v8.372h-8.37z" fill="#69c29e" fill-rule="evenodd" data-name="Rectángulo 18"/><path d="M391.511 1023.368v-8.372h8.371v8.372h-8.37z" fill="#fffbf4" fill-rule="evenodd" data-name="Rectángulo 17"/><path d="M391.511 1040.112v-8.37h8.371v8.37h-8.37z" fill="#fffbf4" fill-rule="evenodd" data-name="Rectángulo 15"/><path d="M391.511 1048.484v-8.372h8.371v8.372h-8.37z" fill="#69c29e" fill-rule="evenodd" data-name="Rectángulo 14"/><path d="M391.511 1031.741v-8.372h8.371v8.372h-8.37z" fill="#69c29e" fill-rule="evenodd" data-name="Rectángulo 16"/><path d="M391.511 1131.5v-8.372h8.371v8.372h-8.37z" fill="#69c29e" fill-rule="evenodd" data-name="Rectángulo 3"/><path d="M391.511 1123.128v-8.372h8.371v8.372h-8.37z" fill="#fffbf4" fill-rule="evenodd" data-name="Rectángulo 4"/><path d="M399.884 1131.5v-8.372h8.372v8.372h-8.372z" fill="#fffbf4" fill-rule="evenodd" data-name="Rectángulo 5"/><path d="M391.511 1114.756v-8.372h8.371v8.372h-8.37z" fill="#69c29e" fill-rule="evenodd" data-name="Rectángulo 6"/><path d="M391.511 1098.011v-8.372h8.371v8.372h-8.37z" fill="#69c29e" fill-rule="evenodd" data-name="Rectángulo 8"/><path d="M391.511 1089.64v-8.373h8.371v8.372h-8.37z" fill="#fffbf4" fill-rule="evenodd" data-name="Rectángulo 9"/><path d="M391.511 1081.267v-8.372h8.371v8.372h-8.37z" fill="#69c29e" fill-rule="evenodd" data-name="Rectángulo 10"/><path d="M391.511 1072.895v-8.372h8.371v8.372h-8.37z" fill="#fffbf4" fill-rule="evenodd" data-name="Rectángulo 11"/><path d="M391.511 1065.229v-8.372h8.371v8.372h-8.37z" fill="#69c29e" fill-rule="evenodd" data-name="Rectángulo 12"/><path d="M391.511 1056.857v-8.373h8.371v8.373h-8.37z" fill="#fffbf4" fill-rule="evenodd" data-name="Rectángulo 13"/><path d="M391.511 1106.382v-8.37h8.371v8.37h-8.37z" fill="#fffbf4" fill-rule="evenodd" data-name="Rectángulo 7"/></g></svg>