<svg xmlns="http://www.w3.org/2000/svg" width="369.024" height="41.194" viewBox="-8.744 -20.744 369.024 41.194"><g data-name="Grupo 10"><path d="M360.28 20.45H349.98V10.151h10.298V20.45z" fill="#69c29e" fill-rule="evenodd" data-name="Rectángulo 3"/><path d="M349.981 20.45h-10.298V10.151h10.298V20.45z" fill="#fffbf4" fill-rule="evenodd" data-name="Rectángulo 4"/><path d="M360.28 10.15H349.98V-.146h10.298V10.15z" fill="#fffbf4" fill-rule="evenodd" data-name="Rectángulo 5"/><path d="M339.683 20.45h-10.299V10.151h10.299V20.45z" fill="#69c29e" fill-rule="evenodd" data-name="Rectángulo 6"/><path d="M329.383 20.45h-10.297V10.151h10.297V20.45z" fill="#fffbf4" fill-rule="evenodd" data-name="Rectángulo 7"/><path d="M319.086 20.45h-10.299V10.151h10.299V20.45z" fill="#69c29e" fill-rule="evenodd" data-name="Rectángulo 8"/><path d="M308.787 20.45H298.49V10.151h10.298V20.45z" fill="#fffbf4" fill-rule="evenodd" data-name="Rectángulo 9"/><path d="M298.489 20.45H288.19V10.151h10.298V20.45z" fill="#69c29e" fill-rule="evenodd" data-name="Rectángulo 10"/><path d="M288.19 20.45h-10.298V10.151h10.299V20.45z" fill="#fffbf4" fill-rule="evenodd" data-name="Rectángulo 11"/><path d="M278.76 20.45h-10.298V10.151h10.298V20.45z" fill="#69c29e" fill-rule="evenodd" data-name="Rectángulo 12"/><path d="M268.462 20.45h-10.298V10.151h10.298V20.45z" fill="#fffbf4" fill-rule="evenodd" data-name="Rectángulo 13"/><path d="M258.164 20.45h-10.299V10.151h10.299V20.45z" fill="#69c29e" fill-rule="evenodd" data-name="Rectángulo 14"/><path d="M247.865 20.45h-10.297V10.151h10.297V20.45z" fill="#fffbf4" fill-rule="evenodd" data-name="Rectángulo 15"/><path d="M237.568 20.45H227.27V10.151h10.298V20.45z" fill="#69c29e" fill-rule="evenodd" data-name="Rectángulo 16"/><path d="M227.268 20.45H216.97V10.151h10.298V20.45z" fill="#fffbf4" fill-rule="evenodd" data-name="Rectángulo 17"/><path d="M216.97 20.45H206.67V10.151h10.299V20.45z" fill="#69c29e" fill-rule="evenodd" data-name="Rectángulo 18"/><path d="M206.671 20.45h-10.298V10.151h10.298V20.45z" fill="#fffbf4" fill-rule="evenodd" data-name="Rectángulo 19"/><path d="M196.414 20.45h-10.298V10.151h10.298V20.45z" fill="#69c29e" fill-rule="evenodd" data-name="Rectángulo 20"/><path d="M349.952 10.15h-10.299V-.146h10.299V10.15z" fill="#69c29e" fill-rule="evenodd" data-name="Rectángulo 21"/><path d="M339.653 10.15h-10.298V-.146h10.298V10.15z" fill="#fffbf4" fill-rule="evenodd" data-name="Rectángulo 22"/><path d="M329.355 10.15h-10.298V-.146h10.298V10.15z" fill="#69c29e" fill-rule="evenodd" data-name="Rectángulo 23"/><path d="M319.057 10.15h-10.299V-.146h10.299V10.15z" fill="#fffbf4" fill-rule="evenodd" data-name="Rectángulo 24"/><path d="M308.758 10.15H298.46V-.146h10.298V10.15z" fill="#69c29e" fill-rule="evenodd" data-name="Rectángulo 25"/><path d="M298.46 10.15H288.16V-.146h10.299V10.15z" fill="#fffbf4" fill-rule="evenodd" data-name="Rectángulo 26"/><path d="M288.161 10.15h-10.298V-.146h10.298V10.15z" fill="#69c29e" fill-rule="evenodd" data-name="Rectángulo 27"/><path d="M277.862 10.15h-10.299V-.146h10.299V10.15z" fill="#fffbf4" fill-rule="evenodd" data-name="Rectángulo 28"/><path d="M268.433 10.15h-10.299V-.146h10.299V10.15z" fill="#69c29e" fill-rule="evenodd" data-name="Rectángulo 29"/><path d="M258.134 10.15h-10.298V-.146h10.298V10.15z" fill="#fffbf4" fill-rule="evenodd" data-name="Rectángulo 30"/><path d="M247.836 10.15h-10.298V-.146h10.298V10.15z" fill="#69c29e" fill-rule="evenodd" data-name="Rectángulo 31"/><path d="M237.538 10.15h-10.299V-.146h10.299V10.15z" fill="#fffbf4" fill-rule="evenodd" data-name="Rectángulo 32"/><path d="M227.24 10.15h-10.3V-.146h10.3V10.15z" fill="#69c29e" fill-rule="evenodd" data-name="Rectángulo 33"/><path d="M216.94 10.15h-10.298V-.146h10.299V10.15z" fill="#fffbf4" fill-rule="evenodd" data-name="Rectángulo 34"/><path d="M206.642 10.15h-10.298V-.146h10.298V10.15z" fill="#69c29e" fill-rule="evenodd" data-name="Rectángulo 35"/><path d="M196.344 10.15h-10.299V-.146h10.299V10.15z" fill="#fffbf4" fill-rule="evenodd" data-name="Rectángulo 36"/><path d="M186.065 20.428h-10.298V10.13h10.298v10.298z" fill="#fffbf4" fill-rule="evenodd" data-name="Rectángulo 37"/><path d="M186.087 10.15h-10.299V-.146h10.299V10.15z" fill="#69c29e" fill-rule="evenodd" data-name="Rectángulo 38"/><path d="M360.28-.147H349.98v-10.299h10.298V-.147z" fill="#69c29e" fill-rule="evenodd" data-name="Rectángulo 39"/><path d="M349.981-.147h-10.298v-10.299h10.298V-.147z" fill="#fffbf4" fill-rule="evenodd" data-name="Rectángulo 40"/><path d="M360.28-10.446H349.98v-10.298h10.298v10.298z" fill="#fffbf4" fill-rule="evenodd" data-name="Rectángulo 41"/><path d="M339.683-.147h-10.299v-10.299h10.299V-.147z" fill="#69c29e" fill-rule="evenodd" data-name="Rectángulo 42"/><path d="M329.384-.147h-10.298v-10.299h10.298V-.147z" fill="#fffbf4" fill-rule="evenodd" data-name="Rectángulo 43"/><path d="M319.086-.147h-10.299v-10.299h10.299V-.147z" fill="#69c29e" fill-rule="evenodd" data-name="Rectángulo 44"/><path d="M308.787-.147H298.49v-10.299h10.298V-.147z" fill="#fffbf4" fill-rule="evenodd" data-name="Rectángulo 45"/><path d="M298.488-.147h-10.299v-10.299h10.299V-.147z" fill="#69c29e" fill-rule="evenodd" data-name="Rectángulo 46"/><path d="M288.19-.147h-10.3v-10.299h10.3V-.147z" fill="#fffbf4" fill-rule="evenodd" data-name="Rectángulo 47"/><path d="M278.76-.147h-10.298v-10.299h10.298V-.147z" fill="#69c29e" fill-rule="evenodd" data-name="Rectángulo 48"/><path d="M268.462-.147h-10.298v-10.299h10.298V-.147z" fill="#fffbf4" fill-rule="evenodd" data-name="Rectángulo 49"/><path d="M258.164-.147h-10.299v-10.299h10.299V-.147z" fill="#69c29e" fill-rule="evenodd" data-name="Rectángulo 50"/><path d="M247.865-.147h-10.298v-10.299h10.298V-.147z" fill="#fffbf4" fill-rule="evenodd" data-name="Rectángulo 51"/><path d="M237.567-.147h-10.299v-10.299h10.299V-.147z" fill="#69c29e" fill-rule="evenodd" data-name="Rectángulo 52"/><path d="M227.268-.147H216.97v-10.299h10.298V-.147z" fill="#fffbf4" fill-rule="evenodd" data-name="Rectángulo 53"/><path d="M216.97-.147H206.67v-10.299h10.299V-.147z" fill="#69c29e" fill-rule="evenodd" data-name="Rectángulo 54"/><path d="M206.671-.147h-10.298v-10.299h10.298V-.147z" fill="#fffbf4" fill-rule="evenodd" data-name="Rectángulo 55"/><path d="M196.414-.147h-10.298v-10.299h10.298V-.147z" fill="#69c29e" fill-rule="evenodd" data-name="Rectángulo 56"/><path d="M349.952-10.446h-10.299v-10.298h10.299v10.298z" fill="#69c29e" fill-rule="evenodd" data-name="Rectángulo 57"/><path d="M339.653-10.446h-10.298v-10.298h10.298v10.298z" fill="#fffbf4" fill-rule="evenodd" data-name="Rectángulo 58"/><path d="M329.355-10.446h-10.298v-10.298h10.298v10.298z" fill="#69c29e" fill-rule="evenodd" data-name="Rectángulo 59"/><path d="M319.057-10.446h-10.299v-10.298h10.299v10.298z" fill="#fffbf4" fill-rule="evenodd" data-name="Rectángulo 60"/><path d="M308.757-10.446H298.46v-10.298h10.297v10.298z" fill="#69c29e" fill-rule="evenodd" data-name="Rectángulo 61"/><path d="M298.46-10.446H288.16v-10.298h10.299v10.298z" fill="#fffbf4" fill-rule="evenodd" data-name="Rectángulo 62"/><path d="M288.161-10.446h-10.298v-10.298h10.298v10.298z" fill="#69c29e" fill-rule="evenodd" data-name="Rectángulo 63"/><path d="M277.863-10.446h-10.299v-10.298h10.299v10.298z" fill="#fffbf4" fill-rule="evenodd" data-name="Rectángulo 64"/><path d="M268.434-10.446h-10.298v-10.298h10.298v10.298z" fill="#69c29e" fill-rule="evenodd" data-name="Rectángulo 65"/><path d="M258.134-10.446h-10.298v-10.298h10.298v10.298z" fill="#fffbf4" fill-rule="evenodd" data-name="Rectángulo 66"/><path d="M247.836-10.446h-10.298v-10.298h10.298v10.298z" fill="#69c29e" fill-rule="evenodd" data-name="Rectángulo 67"/><path d="M237.538-10.446h-10.299v-10.298h10.299v10.298z" fill="#fffbf4" fill-rule="evenodd" data-name="Rectángulo 68"/><path d="M227.24-10.446h-10.298v-10.298h10.297v10.298z" fill="#69c29e" fill-rule="evenodd" data-name="Rectángulo 69"/><path d="M216.942-10.446h-10.298v-10.298h10.298v10.298z" fill="#fffbf4" fill-rule="evenodd" data-name="Rectángulo 70"/><path d="M206.642-10.446h-10.298v-10.298h10.298v10.298z" fill="#69c29e" fill-rule="evenodd" data-name="Rectángulo 71"/><path d="M196.344-10.446h-10.299v-10.298h10.299v10.298z" fill="#fffbf4" fill-rule="evenodd" data-name="Rectángulo 72"/><path d="M186.065-.167h-10.298v-10.299h10.298V-.167z" fill="#fffbf4" fill-rule="evenodd" data-name="Rectángulo 73"/><path d="M186.087-10.446h-10.298v-10.298h10.298v10.298z" fill="#69c29e" fill-rule="evenodd" data-name="Rectángulo 74"/><path d="M175.767 20.45H165.47V10.151h10.297V20.45z" fill="#69c29e" fill-rule="evenodd" data-name="Rectángulo 75"/><path d="M165.47 20.45H155.17V10.151h10.299V20.45z" fill="#fffbf4" fill-rule="evenodd" data-name="Rectángulo 76"/><path d="M175.767 10.15h-10.299V-.146h10.299V10.15z" fill="#fffbf4" fill-rule="evenodd" data-name="Rectángulo 77"/><path d="M155.171 20.45h-10.298V10.151h10.298V20.45z" fill="#69c29e" fill-rule="evenodd" data-name="Rectángulo 78"/><path d="M144.872 20.45h-10.299V10.151h10.299V20.45z" fill="#fffbf4" fill-rule="evenodd" data-name="Rectángulo 79"/><path d="M134.573 20.45h-10.298V10.151h10.298V20.45z" fill="#69c29e" fill-rule="evenodd" data-name="Rectángulo 80"/><path d="M124.275 20.45h-10.299V10.151h10.299V20.45z" fill="#fffbf4" fill-rule="evenodd" data-name="Rectángulo 81"/><path d="M113.976 20.45h-10.298V10.151h10.298V20.45z" fill="#69c29e" fill-rule="evenodd" data-name="Rectángulo 82"/><path d="M103.678 20.45H93.379V10.151h10.299V20.45z" fill="#fffbf4" fill-rule="evenodd" data-name="Rectángulo 83"/><path d="M94.25 20.45H83.951V10.151H94.25V20.45z" fill="#69c29e" fill-rule="evenodd" data-name="Rectángulo 84"/><path d="M83.95 20.45H73.653V10.151h10.299V20.45z" fill="#fffbf4" fill-rule="evenodd" data-name="Rectángulo 85"/><path d="M73.652 20.45H63.354V10.151h10.298V20.45z" fill="#69c29e" fill-rule="evenodd" data-name="Rectángulo 86"/><path d="M63.354 20.45H53.056V10.151h10.298V20.45z" fill="#fffbf4" fill-rule="evenodd" data-name="Rectángulo 87"/><path d="M53.056 20.45H42.757V10.151h10.299V20.45z" fill="#69c29e" fill-rule="evenodd" data-name="Rectángulo 88"/><path d="M42.756 20.45H32.457V10.151h10.299V20.45z" fill="#fffbf4" fill-rule="evenodd" data-name="Rectángulo 89"/><path d="M32.457 20.45H22.16V10.151h10.298V20.45z" fill="#69c29e" fill-rule="evenodd" data-name="Rectángulo 90"/><path d="M22.159 20.45H11.862V10.151h10.297V20.45z" fill="#fffbf4" fill-rule="evenodd" data-name="Rectángulo 91"/><path d="M11.902 20.45H1.603V10.151h10.299V20.45z" fill="#69c29e" fill-rule="evenodd" data-name="Rectángulo 92"/><path d="M165.44 10.15h-10.3V-.146h10.3V10.15z" fill="#69c29e" fill-rule="evenodd" data-name="Rectángulo 93"/><path d="M155.14 10.15h-10.298V-.146h10.299V10.15z" fill="#fffbf4" fill-rule="evenodd" data-name="Rectángulo 94"/><path d="M144.842 10.15h-10.298V-.146h10.298V10.15z" fill="#69c29e" fill-rule="evenodd" data-name="Rectángulo 95"/><path d="M134.544 10.15h-10.298V-.146h10.298V10.15z" fill="#fffbf4" fill-rule="evenodd" data-name="Rectángulo 96"/><path d="M124.246 10.15h-10.299V-.146h10.299V10.15z" fill="#69c29e" fill-rule="evenodd" data-name="Rectángulo 97"/><path d="M113.947 10.15H103.65V-.146h10.298V10.15z" fill="#fffbf4" fill-rule="evenodd" data-name="Rectángulo 98"/><path d="M103.649 10.15H93.35V-.146h10.299V10.15z" fill="#69c29e" fill-rule="evenodd" data-name="Rectángulo 99"/><path d="M93.35 10.15H83.052V-.146H93.35V10.15z" fill="#fffbf4" fill-rule="evenodd" data-name="Rectángulo 100"/><path d="M83.922 10.15H73.623V-.146h10.299V10.15z" fill="#69c29e" fill-rule="evenodd" data-name="Rectángulo 101"/><path d="M73.623 10.15H63.325V-.146h10.298V10.15z" fill="#fffbf4" fill-rule="evenodd" data-name="Rectángulo 102"/><path d="M63.325 10.15H53.026V-.146h10.299V10.15z" fill="#69c29e" fill-rule="evenodd" data-name="Rectángulo 103"/><path d="M53.026 10.15H42.728V-.146h10.298V10.15z" fill="#fffbf4" fill-rule="evenodd" data-name="Rectángulo 104"/><path d="M42.728 10.15H32.429V-.146h10.299V10.15z" fill="#69c29e" fill-rule="evenodd" data-name="Rectángulo 105"/><path d="M32.43 10.15H22.13V-.146h10.298V10.15z" fill="#fffbf4" fill-rule="evenodd" data-name="Rectángulo 106"/><path d="M22.13 10.15H11.83V-.146H22.13V10.15z" fill="#69c29e" fill-rule="evenodd" data-name="Rectángulo 107"/><path d="M11.831 10.15H1.533V-.146H11.83V10.15z" fill="#fffbf4" fill-rule="evenodd" data-name="Rectángulo 108"/><path d="M1.554 20.428H-8.744V10.13H1.554v10.298z" fill="#fffbf4" fill-rule="evenodd" data-name="Rectángulo 109"/><path d="M1.575 10.15H-8.723V-.146H1.575V10.15z" fill="#69c29e" fill-rule="evenodd" data-name="Rectángulo 110"/><path d="M175.767-.147h-10.299v-10.299h10.299V-.147z" fill="#69c29e" fill-rule="evenodd" data-name="Rectángulo 111"/><path d="M165.468-.147H155.17v-10.299h10.298V-.147z" fill="#fffbf4" fill-rule="evenodd" data-name="Rectángulo 112"/><path d="M175.767-10.446H165.47v-10.298h10.297v10.298z" fill="#fffbf4" fill-rule="evenodd" data-name="Rectángulo 113"/><path d="M155.17-.147h-10.298v-10.299h10.298V-.147z" fill="#69c29e" fill-rule="evenodd" data-name="Rectángulo 114"/><path d="M144.872-.147h-10.299v-10.299h10.299V-.147z" fill="#fffbf4" fill-rule="evenodd" data-name="Rectángulo 115"/><path d="M134.573-.147h-10.298v-10.299h10.298V-.147z" fill="#69c29e" fill-rule="evenodd" data-name="Rectángulo 116"/><path d="M124.275-.147h-10.299v-10.299h10.299V-.147z" fill="#fffbf4" fill-rule="evenodd" data-name="Rectángulo 117"/><path d="M113.976-.147h-10.298v-10.299h10.298V-.147z" fill="#69c29e" fill-rule="evenodd" data-name="Rectángulo 118"/><path d="M103.678-.147H93.379v-10.299h10.299V-.147z" fill="#fffbf4" fill-rule="evenodd" data-name="Rectángulo 119"/><path d="M94.25-.147h-10.3v-10.299h10.3V-.147z" fill="#69c29e" fill-rule="evenodd" data-name="Rectángulo 120"/><path d="M83.95-.147H73.653v-10.299h10.299V-.147z" fill="#fffbf4" fill-rule="evenodd" data-name="Rectángulo 121"/><path d="M73.652-.147H63.354v-10.299h10.298V-.147z" fill="#69c29e" fill-rule="evenodd" data-name="Rectángulo 122"/><path d="M63.354-.147H53.056v-10.299h10.298V-.147z" fill="#fffbf4" fill-rule="evenodd" data-name="Rectángulo 123"/><path d="M53.056-.147H42.757v-10.299h10.299V-.147z" fill="#69c29e" fill-rule="evenodd" data-name="Rectángulo 124"/><path d="M42.757-.147H32.46v-10.299h10.298V-.147z" fill="#fffbf4" fill-rule="evenodd" data-name="Rectángulo 125"/><path d="M32.457-.147H22.16v-10.299h10.298V-.147z" fill="#69c29e" fill-rule="evenodd" data-name="Rectángulo 126"/><path d="M22.159-.147H11.86v-10.299H22.16V-.147z" fill="#fffbf4" fill-rule="evenodd" data-name="Rectángulo 127"/><path d="M11.902-.147H1.603v-10.299h10.299V-.147z" fill="#69c29e" fill-rule="evenodd" data-name="Rectángulo 128"/><path d="M165.44-10.446h-10.3v-10.298h10.3v10.298z" fill="#69c29e" fill-rule="evenodd" data-name="Rectángulo 129"/><path d="M155.14-10.446h-10.298v-10.298h10.299v10.298z" fill="#fffbf4" fill-rule="evenodd" data-name="Rectángulo 130"/><path d="M144.842-10.446h-10.297v-10.298h10.297v10.298z" fill="#69c29e" fill-rule="evenodd" data-name="Rectángulo 131"/><path d="M134.545-10.446h-10.298v-10.298h10.298v10.298z" fill="#fffbf4" fill-rule="evenodd" data-name="Rectángulo 132"/><path d="M124.246-10.446h-10.299v-10.298h10.299v10.298z" fill="#69c29e" fill-rule="evenodd" data-name="Rectángulo 133"/><path d="M113.947-10.446H103.65v-10.298h10.298v10.298z" fill="#fffbf4" fill-rule="evenodd" data-name="Rectángulo 134"/><path d="M103.649-10.446H93.35v-10.298h10.299v10.298z" fill="#69c29e" fill-rule="evenodd" data-name="Rectángulo 135"/><path d="M93.35-10.446H83.052v-10.298H93.35v10.298z" fill="#fffbf4" fill-rule="evenodd" data-name="Rectángulo 136"/><path d="M83.922-10.446H73.623v-10.298h10.299v10.298z" fill="#69c29e" fill-rule="evenodd" data-name="Rectángulo 137"/><path d="M73.623-10.446H63.326v-10.298h10.297v10.298z" fill="#fffbf4" fill-rule="evenodd" data-name="Rectángulo 138"/><path d="M63.325-10.446H53.026v-10.298h10.299v10.298z" fill="#69c29e" fill-rule="evenodd" data-name="Rectángulo 139"/><path d="M53.026-10.446H42.728v-10.298h10.298v10.298z" fill="#fffbf4" fill-rule="evenodd" data-name="Rectángulo 140"/><path d="M42.728-10.446H32.429v-10.298h10.299v10.298z" fill="#69c29e" fill-rule="evenodd" data-name="Rectángulo 141"/><path d="M32.43-10.446H22.13v-10.298h10.298v10.298z" fill="#fffbf4" fill-rule="evenodd" data-name="Rectángulo 142"/><path d="M22.13-10.446H11.83v-10.298H22.13v10.298z" fill="#69c29e" fill-rule="evenodd" data-name="Rectángulo 143"/><path d="M11.831-10.446H1.533v-10.298H11.83v10.298z" fill="#fffbf4" fill-rule="evenodd" data-name="Rectángulo 144"/><path d="M1.554-.169H-8.744v-10.297H1.554V-.169z" fill="#fffbf4" fill-rule="evenodd" data-name="Rectángulo 145"/><path d="M1.575-10.446H-8.723v-10.298H1.575v10.298z" fill="#69c29e" fill-rule="evenodd" data-name="Rectángulo 146"/></g></svg>