<svg xmlns="http://www.w3.org/2000/svg" width="27.417" height="27.418" viewBox="643.365 997.298 27.417 27.418"><g data-name="CompositeLayer"><path d="M657.074 1008.183a2.828 2.828 0 0 0-2.824 2.824 2.828 2.828 0 0 0 2.824 2.824 2.828 2.828 0 0 0 2.824-2.824 2.828 2.828 0 0 0-2.824-2.824" fill="#fdfbf9" fill-rule="evenodd" data-name="Trazado 37"/><path d="M657.074 997.298c-7.572 0-13.709 6.138-13.709 13.71 0 7.57 6.137 13.708 13.709 13.708s13.709-6.138 13.709-13.708c0-7.572-6.137-13.71-13.709-13.71m8.19 17.945a3.955 3.955 0 0 1-3.954 3.954h-8.471a3.955 3.955 0 0 1-3.954-3.954v-8.472a3.954 3.954 0 0 1 3.954-3.953h8.47a3.954 3.954 0 0 1 3.954 3.953v8.472Z" fill="#fdfbf9" fill-rule="evenodd" data-name="Trazado 38"/><path d="M661.028 1004.229h-7.907a2.825 2.825 0 0 0-2.824 2.824v7.907a2.825 2.825 0 0 0 2.824 2.824h7.907a2.825 2.825 0 0 0 2.824-2.824v-7.907a2.825 2.825 0 0 0-2.824-2.824m-3.953 11.013a4.237 4.237 0 0 1-4.236-4.235 4.237 4.237 0 0 1 8.471 0 4.237 4.237 0 0 1-4.235 4.235m4.59-7.527a.848.848 0 1 1 .002-1.695.848.848 0 0 1-.002 1.695" fill="#fdfbf9" fill-rule="evenodd" data-name="Trazado 39"/></g></svg>