<svg xmlns="http://www.w3.org/2000/svg" width="27.418" height="27.418" viewBox="47.907 0 27.418 27.418"><path d="M61.616 0c-7.571 0-13.71 6.139-13.71 13.71 0 7.57 6.139 13.709 13.71 13.709 7.571 0 13.71-6.138 13.71-13.709S69.186 0 61.615 0m-4.02 20.595a.15.15 0 0 1-.15.149h-3.052a.15.15 0 0 1-.15-.15V10.84a.15.15 0 0 1 .15-.15h3.053a.15.15 0 0 1 .15.15v9.755ZM55.921 9.349a2.01 2.01 0 1 1 0-4.022 2.01 2.01 0 0 1 0 4.022m13.07 10.725c0 .368-.302.67-.67.67H66.31a.672.672 0 0 1-.67-.67v-4.692a1.677 1.677 0 0 0-3.352 0v4.692c0 .368-.301.67-.67.67h-2.01a.672.672 0 0 1-.67-.67V11.36c0-.368.3-.67.67-.67h2.01c.369 0 .67.302.67.67v.43c.67-.869 1.78-1.435 3.017-1.435 1.85 0 3.686 1.34 3.686 4.021v5.698Z" fill="#fdfbf9" fill-rule="evenodd" data-name="Trazado 34"/></svg>