<svg xmlns="http://www.w3.org/2000/svg" width="27.417" height="27.418" viewBox="739.497 997.298 27.417 27.418"><g data-name="CompositeLayer"><path d="M753.46 1002.937c-4.099 0-7.436 3.337-7.436 7.438 0 1.49.44 2.877 1.197 4.041l-.799 2.997 2.997-.798c.097.064.197.125.301.183a7.38 7.38 0 0 0 3.74 1.013c4.101 0 7.438-3.337 7.438-7.436 0-4.1-3.337-7.438-7.437-7.438m4.41 10.71c-.13.195-.265.377-.482.594a2.235 2.235 0 0 1-1.81.648c-1.203-.123-2.91-.787-4.379-2.253-1.469-1.468-2.133-3.176-2.253-4.38a2.232 2.232 0 0 1 .648-1.808 3.78 3.78 0 0 1 .593-.486.651.651 0 0 1 .986.328l.492 1.478c.137.404.076.661-.1.832l-.393.396a.583.583 0 0 0-.077.73c.217.34.626.885 1.378 1.637.752.752 1.296 1.16 1.637 1.378a.584.584 0 0 0 .729-.078l.396-.392c.172-.176.428-.237.833-.101l1.478.493c.409.136.57.625.324.985" fill="#fdfbf9" fill-rule="evenodd" data-name="Trazado 35"/><path d="M753.206 997.298c-7.572 0-13.71 6.138-13.71 13.709s6.138 13.71 13.71 13.71c7.571 0 13.708-6.139 13.708-13.71 0-7.571-6.137-13.71-13.708-13.71m.704 22.443a9.325 9.325 0 0 1-4.769-1.043h-.002l-4.692 1.047a.3.3 0 0 1-.356-.356l1.048-4.691a9.339 9.339 0 0 1-1.042-4.808c.242-4.822 4.227-8.73 9.052-8.886a9.376 9.376 0 0 1 9.682 9.744c-.186 4.815-4.107 8.77-8.921 8.993" fill="#fdfbf9" fill-rule="evenodd" data-name="Trazado 36"/></g></svg>